<?xml version="1.0" encoding="UTF-8"?>
<!-- Generated by Pixelmator Pro 4.0 -->
<svg width="1080" height="1080" viewBox="0 0 1080 1080" xmlns="http://www.w3.org/2000/svg">
    <g id="RightWing" visibility="visible">
        <path id="Path" fill="#a3bbc8" fill-opacity="0.4" fill-rule="evenodd" stroke="#a3bbc8" stroke-width="7" stroke-linecap="round" stroke-linejoin="round" d="M 602 336 L 607 302 L 612 289 L 618 281 L 629 267 L 644 252 L 654 246 L 668 238 L 680 234 L 700 231 L 717 232 L 733 236 L 750 245 L 766 257 L 781 277 L 789 292 L 798 314 L 801 330 L 802 345 L 802 363 L 801 376 L 799 390 L 790 413 L 780 436 L 770 453 L 753 475 L 744 484 L 730 496 L 707 514 L 660 457 L 602 336 Z"/>
        <g id="RightWingPattern">
            <path id="path1" fill="none" stroke="#a3bbc8" stroke-width="6" stroke-linecap="round" stroke-linejoin="round" d="M 689 393 L 723 382 L 727 380 L 729 378 L 749 314 L 745 312 L 743 309 L 743 305 L 744 301 L 748 298 L 752 298 L 755 299 L 758 301 L 759 305 L 759 308 L 758 311 L 754 313 L 749 313"/>
            <path id="path2" fill="none" stroke="#a3bbc8" stroke-width="6" stroke-linecap="round" stroke-linejoin="round" d="M 697 235 L 675 316 L 679 320 L 680 325 L 679 329 L 678 332 L 674 333 L 669 332 L 666 329 L 664 324 L 666 319 L 671 317 L 674 316"/>
            <path id="path3" fill="none" stroke="#a3bbc8" stroke-width="6" stroke-linecap="round" stroke-linejoin="round" d="M 728 237 L 720 266 L 718 271 L 715 274 L 688 278"/>
            <path id="path4" fill="none" stroke="#a3bbc8" stroke-width="6" stroke-linecap="round" stroke-linejoin="round" d="M 689 392 L 710 320 L 706 317 L 704 313 L 704 308 L 707 305 L 711 303 L 714 303 L 718 305 L 720 308 L 720 313 L 719 316 L 717 318 L 714 319 L 712 319"/>
            <path id="path5" fill="none" stroke="#a3bbc8" stroke-width="6" stroke-linecap="round" stroke-linejoin="round" d="M 628 271 L 638 283 L 646 294 L 645 302 L 633 343"/>
        </g>
    </g>
</svg>
