<?xml version="1.0" encoding="UTF-8"?>
<!-- Generated by Pixelmator Pro 4.0 -->
<svg width="1080" height="1080" viewBox="0 0 1080 1080" xmlns="http://www.w3.org/2000/svg">
    <g id="MouthOpen" visibility="visible">
        <path id="path38" fill="#932b28" fill-rule="evenodd" stroke="none" d="M 506 581 L 442 588.179443 L 444.031738 595.359009 L 446.063507 602.538452 L 449.111115 607.666626 L 452.158722 609.717957 L 455.20636 612.794861 L 459.269836 615.871826 L 464.349213 618.94873 L 470.444458 621 L 476.539673 621 L 482.634918 619.974365 L 486.698425 618.94873 L 491.777771 615.871826 L 495.841278 612.794861 L 501.936493 606.640991 L 504.984131 600.487183 L 506 595.359009 L 506 581 Z"/>
        <path id="path39" fill="#ffffff" fill-rule="evenodd" stroke="#ffffff" d="M 450 587.375 L 451.018188 594.8125 L 453.054535 598 L 461.200012 598 L 506 596.9375 L 506 581 L 450 587.375 Z"/>
        <path id="path40" fill="#be3f3c" fill-rule="evenodd" stroke="#be3f3c" d="M 473 619.928589 L 473 616.714294 L 475 613.5 L 478 609.214294 L 482 607.071411 L 486 606 L 492 606 L 498 606 L 501 606 L 494 612.428589 L 487 617.785706 L 477 621 L 473 619.928589 Z"/>
    </g>
</svg>
