<?xml version="1.0" encoding="UTF-8"?>
<!-- Generated by Pixelmator Pro 4.0 -->
<svg width="1080" height="1080" viewBox="0 0 1080 1080" xmlns="http://www.w3.org/2000/svg">
    <g id="MouthSlightlyOpen" visibility="visible">
        <path id="path41" fill="#932b28" fill-rule="evenodd" stroke="none" d="M 506 589 L 442 593.307678 L 444.031738 597.615356 L 446.063507 601.923096 L 449.111115 605 L 452.158722 606.230774 L 455.20636 608.076904 L 459.269836 609.923096 L 464.349213 611.769226 L 470.444458 613 L 476.539673 613 L 482.634918 612.384644 L 486.698425 611.769226 L 491.777771 609.923096 L 495.841278 608.076904 L 501.936493 604.384644 L 504.984131 600.692322 L 506 597.615356 L 506 589 Z"/>
        <path id="path42" fill="#ffffff" fill-rule="evenodd" stroke="none" d="M 506 596.9375 L 506 589 L 450.726563 592.71875 L 451.015625 594.8125 L 453.054688 598 L 461.203125 598 Z"/>
        <path id="path43" fill="#bd413f" fill-rule="evenodd" stroke="none" d="M 482.632813 612.382813 L 486.695313 611.765625 L 491.78125 609.921875 L 495.84375 608.078125 L 499.273438 606 L 498 606 L 492 606 L 486 606 L 482 607.070313 L 478 609.210938 L 475.351563 613 L 476.539063 613 Z"/>
    </g>
</svg>
