<svg xmlns="http://www.w3.org/2000/svg" viewBox="0 0 24 24" width="24" height="24">
  <g fill="#8E8E93">
    <path d="M 10.5 3.5 L 8.5 1 L 9.5 0.5 L 11.5 3 Z" />
    <path d="M 13.5 3.5 L 15.5 1 L 14.5 0.5 L 12.5 3 Z" />
    
    <circle cx="12" cy="5" r="2.5" />
    
    <circle cx="12" cy="9.5" r="3" />
    
    <path d="M 10 9 C 5 2 0 6 3 12 C 4.5 15 8.5 11 10 9 Z" />
    <path d="M 14 9 C 19 2 24 6 21 12 C 19.5 15 15.5 11 14 9 Z" />
    
    <path fill-rule="evenodd" clip-rule="evenodd" d="
      M 12 22 C 17 18 16.5 12 12 12 C 7.5 12 7 18 12 22 Z
      M 8.2 14.5 Q 12 15.5 15.8 14.5 L 15.9 16 Q 12 17 8.1 16 Z
      M 9.2 17.5 Q 12 18.5 14.8 17.5 L 14.5 19 Q 12 20 9.5 19 Z
    " />
  </g>
</svg>
