<?xml version="1.0" encoding="UTF-8"?>
<!-- Generated by Pixelmator Pro 4.0 -->
<svg width="1080" height="1080" viewBox="0 0 1080 1080" xmlns="http://www.w3.org/2000/svg">
    <g id="Left-Wing" visibility="visible">
        <path id="path6" fill="#a3bbc8" fill-opacity="0.4" fill-rule="evenodd" stroke="#a3bbc8" stroke-width="7" stroke-linecap="round" stroke-linejoin="round" d="M 705 483 L 715 445 L 725 418 L 732 403 L 746 378 L 767 352 L 788 334 L 806 323 L 826 315 L 842 309 L 860 306 L 889 306 L 909 310 L 923 315 L 943 328 L 959 343 L 972 362 L 980 382 L 984 403 L 984 425 L 982 446 L 975 469 L 967 487 L 954 507 L 939 526 L 924 538 L 906 550 L 884 561 L 864 568 L 841 574 L 818 578 L 788 578 L 762 580 L 694 501 L 694 485 L 705 483 Z"/>
        <g id="LeftWingPattern">
            <path id="path7" fill="none" stroke="#a3bbc8" stroke-width="6" stroke-linecap="round" stroke-linejoin="round" d="M 716 516 L 789 455 L 798 447 L 800 439 L 803 385 L 805 377 L 811 372 L 840 347 L 842 343 L 843 315"/>
            <path id="path8" fill="none" stroke="#a3bbc8" stroke-width="6" stroke-linecap="round" stroke-linejoin="round" d="M 927 320 L 858 379 L 855 382 L 857 386 L 857 390 L 856 394 L 853 396 L 847 398 L 842 397 L 840 394 L 838 389 L 839 383 L 843 379 L 848 378 L 852 379"/>
            <path id="path9" fill="none" stroke="#a3bbc8" stroke-width="6" stroke-linecap="round" stroke-linejoin="round" d="M 955 342 L 934 361 L 930 363 L 926 366 L 920 365 L 910 360 L 893 352"/>
            <path id="path10" fill="none" stroke="#a3bbc8" stroke-width="6" stroke-linecap="round" stroke-linejoin="round" d="M 731 536 L 887 405 L 885 401 L 885 397 L 885 394 L 888 391 L 890 389 L 894 388 L 897 388 L 902 391 L 904 395 L 904 400 L 902 403 L 900 406 L 897 408 L 893 408 L 889 406"/>
            <path id="path11" fill="none" stroke="#a3bbc8" stroke-width="6" stroke-linecap="round" stroke-linejoin="round" d="M 821 462 L 857 472 L 862 472 L 868 471 L 873 469 L 927 424 L 925 421 L 924 417 L 925 413 L 929 410 L 932 408 L 936 408 L 940 409 L 943 412 L 944 417 L 944 421 L 941 426 L 937 426 L 933 426 L 929 425"/>
            <path id="path12" fill="none" stroke="#a3bbc8" stroke-width="6" stroke-linecap="round" stroke-linejoin="round" d="M 984 419 L 940 456 L 941 460 L 941 466 L 940 469 L 937 471 L 933 473 L 928 472 L 925 470 L 922 466 L 922 460 L 925 456 L 929 453 L 935 453 L 938 454"/>
            <path id="path13" fill="none" stroke="#a3bbc8" stroke-width="6" stroke-linecap="round" stroke-linejoin="round" d="M 752 550 L 820 494 L 824 491 L 828 491 L 836 492 L 879 502 L 880 498 L 885 495 L 889 494 L 893 495 L 897 497 L 899 502 L 898 507 L 896 511 L 892 513 L 886 513 L 883 511 L 881 508 L 880 505"/>
            <path id="path14" fill="none" stroke="#a3bbc8" stroke-width="6" stroke-linecap="round" stroke-linejoin="round" d="M 772 566 L 811 533 L 816 530 L 822 528 L 843 532 L 845 528 L 849 525 L 855 525 L 860 527 L 863 531 L 863 537 L 861 542 L 857 544 L 848 544 L 845 540 L 843 535"/>
            <path id="path15" fill="none" stroke="#a3bbc8" stroke-width="6" stroke-linecap="round" stroke-linejoin="round" d="M 706 483 L 730 468 L 748 454 L 759 445 L 768 436 L 771 426 L 771 413 L 771 410 L 768 409 L 764 407 L 763 402 L 764 397 L 767 393 L 772 392 L 777 393 L 781 396 L 782 401 L 781 406 L 778 408 L 773 410"/>
        </g>
    </g>
</svg>
